<?xml version="1.0" encoding="utf-8"?>
<!-- Generator: Adobe Illustrator 25.1.0, SVG Export Plug-In . SVG Version: 6.00 Build 0)  -->
<svg version="1.1" id="レイヤー_1" xmlns="http://www.w3.org/2000/svg" xmlns:xlink="http://www.w3.org/1999/xlink" x="0px"
	 y="0px" viewBox="0 0 80 80" style="enable-background:new 0 0 80 80;" xml:space="preserve">
<style type="text/css">
	.st0{fill:#6A5CB7;}
	.st1{fill:#A095D8;}
</style>
<g id="グループ_614" transform="translate(-244.798 -473.015)">
	<path id="合体_3" class="st0" d="M264.3,534c-1.7,0-3-1.3-3-3v-36c0-1.7,1.3-3,3-3H285c1.7,0,3,1.3,3,3v3.4h17.3c1.7,0,3,1.3,3,3
		V531c0,1.7-1.3,3-3,3H264.3z"/>
	<path id="長方形_464" class="st1" d="M264.3,505h41c1.7,0,3,1.3,3,3v23c0,1.7-1.3,3-3,3h-41c-1.7,0-3-1.3-3-3v-23
		C261.3,506.4,262.6,505,264.3,505z"/>
</g>
</svg>
