<?xml version="1.0" encoding="utf-8"?>
<!-- Generator: Adobe Illustrator 25.1.0, SVG Export Plug-In . SVG Version: 6.00 Build 0)  -->
<svg version="1.1" id="レイヤー_1" xmlns="http://www.w3.org/2000/svg" xmlns:xlink="http://www.w3.org/1999/xlink" x="0px"
	 y="0px" viewBox="0 0 100 100" style="enable-background:new 0 0 100 100;" xml:space="preserve">
<style type="text/css">
	.st0{fill:#0085F2;}
</style>
<g id="グループ_604" transform="translate(-197.538 -344.045)">
	<path id="パス_1247" class="st0" d="M268.8,367.5c1-1,0.4-3.1-1.3-4.8s-3.8-2.3-4.8-1.3l-33.3,33.3c-0.2,0.2-0.3,0.4-0.3,0.6
		c-0.1,0.1-0.2,0.3-0.3,0.4l-5.2,9.6c-0.9,1.6-0.3,2.2,1.3,1.3l9.6-5.2c0.1-0.1,0.3-0.2,0.4-0.3c0.2-0.1,0.4-0.2,0.6-0.3
		L268.8,367.5z"/>
	<path id="パス_1248" class="st0" d="M271.4,397l-7.5,7.5h-7.1c-0.8,0-1.4,0.6-1.4,1.4v8.6c0,0.8,0.6,1.4,1.4,1.4h7.1l7.5,7.5
		c0.6,0.6,1,0.4,1-0.4v-25.7C272.4,396.7,272,396.5,271.4,397z"/>
	<path id="パス_1249" class="st0" d="M286.9,395.6c-0.7-0.7-1.9-0.7-2.6,0.1c-0.7,0.7-0.7,1.8,0,2.5c6.7,6.7,6.7,17.6,0,24.3
		c0,0,0,0,0,0c-0.7,0.7-0.7,1.9,0,2.6s1.9,0.7,2.6,0l0,0C295,416.9,295.1,403.7,286.9,395.6C286.9,395.6,286.9,395.6,286.9,395.6
		L286.9,395.6z"/>
	<path id="パス_1250" class="st0" d="M281.5,401.1c-0.7-0.7-1.9-0.7-2.6,0s-0.7,1.9,0,2.6c3.7,3.7,3.7,9.6,0,13.3
		c-0.7,0.7-0.7,1.9,0,2.6c0.7,0.7,1.9,0.7,2.6,0C286.6,414.4,286.6,406.2,281.5,401.1C281.5,401.1,281.5,401.1,281.5,401.1
		L281.5,401.1z"/>
	<path id="パス_1251" class="st0" d="M244,422.8h-37.7v-55.5H244v6.7l4.3-4.3v-2.4c0-2.4-1.9-4.3-4.3-4.3h-37.7
		c-2.4,0-4.3,1.9-4.3,4.3v55.5c0,2.4,1.9,4.3,4.3,4.3H244c2.4,0,4.3-1.9,4.3-4.3v-28.7l-4.3,4.3L244,422.8z"/>
	<path id="パス_1252" class="st0" d="M235.9,379.7h-21.4c-1.2,0-2.2,0.9-2.2,2.1s0.9,2.2,2.1,2.2c0,0,0.1,0,0.1,0H234l3.5-3.5
		C237.1,380,236.5,379.7,235.9,379.7z"/>
	<path id="パス_1253" class="st0" d="M225.3,393.2c0-0.1,0.1-0.2,0.2-0.3h-11c-1.2,0-2.1,1-2.1,2.2c0,1.2,1,2.1,2.1,2.1h8.6
		l1.9-3.5C225,393.5,225.2,393.3,225.3,393.2z"/>
	<path id="パス_1254" class="st0" d="M238.1,381.9c0-0.5-0.2-1-0.5-1.4L234,384h1.9C237.1,384,238.1,383.1,238.1,381.9z"/>
</g>
</svg>
