<svg xmlns="http://www.w3.org/2000/svg" xmlns:xlink="http://www.w3.org/1999/xlink" width="28.165" height="23.44" viewBox="0 0 28.165 23.44">
  <defs>
    <clipPath id="clip-path">
      <rect id="長方形_258" data-name="長方形 258" width="28.165" height="23.44" fill="rgba(0,0,0,0)"/>
    </clipPath>
  </defs>
  <g id="グループ_415" data-name="グループ 415" clip-path="url(#clip-path)">
    <path id="パス_1214" data-name="パス 1214" d="M12.826.884,6.815,6.9H1.136A1.139,1.139,0,0,0,0,8.03v6.815A1.138,1.138,0,0,0,1.136,15.98H6.815l6.011,6.012c.442.441.8.292.8-.332V1.215c0-.623-.361-.773-.8-.331" transform="translate(0 0.281)" fill="#588fd9"/>
    <path id="パス_1215" data-name="パス 1215" d="M14.811,23.439a.909.909,0,0,1-.455-1.7,11.565,11.565,0,0,0,0-20.048A.908.908,0,0,1,15.265.123a13.382,13.382,0,0,1,0,23.194.9.9,0,0,1-.454.123" transform="translate(6.195 0.001)" fill="#588fd9"/>
    <path id="パス_1216" data-name="パス 1216" d="M13.241,18.3a.908.908,0,0,1-.455-1.694,7.03,7.03,0,0,0,0-12.187A.908.908,0,0,1,13.7,2.842a8.846,8.846,0,0,1,0,15.332.906.906,0,0,1-.454.121" transform="translate(5.496 1.212)" fill="#588fd9"/>
    <path id="パス_1217" data-name="パス 1217" d="M11.667,13.14a.909.909,0,0,1-.457-1.7,2.47,2.47,0,0,0,0-4.3.909.909,0,0,1,.911-1.573,4.287,4.287,0,0,1,0,7.449.9.9,0,0,1-.454.123" transform="translate(4.794 2.427)" fill="#588fd9"/>
  </g>
</svg>
