<?xml version="1.0" encoding="utf-8"?>
<!-- Generator: Adobe Illustrator 25.1.0, SVG Export Plug-In . SVG Version: 6.00 Build 0)  -->
<svg version="1.1" id="レイヤー_1" xmlns="http://www.w3.org/2000/svg" xmlns:xlink="http://www.w3.org/1999/xlink" x="0px"
	 y="0px" viewBox="0 0 40 40" style="enable-background:new 0 0 40 40;" xml:space="preserve">
<style type="text/css">
	.st0{fill:#FFFFFF;}
</style>
<path id="パス_18" class="st0" d="M38.5,16.7h-2.4c-0.3,0-0.6-0.2-0.7-0.5l-1.8-4.4c-0.1-0.3-0.1-0.6,0.1-0.8l1.7-1.7
	c0.2-0.2,0.2-0.5,0-0.7l-3.9-3.9c-0.2-0.2-0.5-0.2-0.7,0l-1.7,1.7c-0.2,0.2-0.6,0.3-0.8,0.1l-4.4-1.8c-0.3-0.1-0.5-0.4-0.5-0.7V1.5
	c0-0.3-0.2-0.5-0.5-0.5h-5.6c-0.3,0-0.5,0.2-0.5,0.5v2.4c0,0.3-0.2,0.6-0.5,0.7l-4.4,1.8c-0.3,0.1-0.6,0.1-0.8-0.1L9.2,4.5
	C9,4.3,8.7,4.3,8.5,4.5L4.6,8.5C4.3,8.7,4.3,9,4.6,9.2l1.7,1.7c0.2,0.2,0.3,0.6,0.1,0.8l-1.8,4.4c-0.1,0.3-0.4,0.5-0.7,0.5H1.5
	c-0.3,0-0.5,0.2-0.5,0.5v5.6c0,0.3,0.2,0.5,0.5,0.5h2.4c0.3,0,0.6,0.2,0.7,0.5l1.8,4.4c0.1,0.3,0.1,0.6-0.1,0.8l-1.7,1.7
	c-0.2,0.2-0.2,0.5,0,0.7l3.9,3.9c0.2,0.2,0.5,0.2,0.7,0l1.7-1.7c0.2-0.2,0.6-0.3,0.8-0.1l4.4,1.8c0.3,0.1,0.5,0.4,0.5,0.7v2.4
	c0,0.3,0.2,0.5,0.5,0.5h5.6c0.3,0,0.5-0.2,0.5-0.5v-2.4c0-0.3,0.2-0.6,0.5-0.7l4.4-1.8c0.3-0.1,0.6-0.1,0.8,0.1l1.7,1.7
	c0.2,0.2,0.5,0.2,0.7,0l3.9-3.9c0.2-0.2,0.2-0.5,0-0.7l-1.7-1.7c-0.2-0.2-0.3-0.6-0.1-0.8l1.8-4.4c0.1-0.3,0.4-0.5,0.7-0.5h2.4
	c0.3,0,0.5-0.2,0.5-0.5v-5.6C39.1,16.9,38.8,16.7,38.5,16.7z M20,30c-5.5,0-10-4.5-10-10s4.5-10,10-10c5.5,0,10,4.5,10,10
	C30,25.5,25.5,30,20,30L20,30z"/>
</svg>
