<?xml version="1.0" encoding="utf-8"?>
<!-- Generator: Adobe Illustrator 25.1.0, SVG Export Plug-In . SVG Version: 6.00 Build 0)  -->
<svg version="1.1" id="レイヤー_1" xmlns="http://www.w3.org/2000/svg" xmlns:xlink="http://www.w3.org/1999/xlink" x="0px"
	 y="0px" viewBox="0 0 100 100" style="enable-background:new 0 0 100 100;" xml:space="preserve">
<style type="text/css">
	.st0{fill:#0085F2;}
</style>
<g id="グループ_597" transform="translate(-673 -342.671)">
	<g id="グループ_436" transform="translate(673 342.671)">
		<path id="パス_1203" class="st0" d="M41,16.2H17C9.4,16.2,3.2,22.4,3.2,30v10.3C3.2,47.9,9.4,54,17,54h3.7
			c0.5,0.1,1,0.6,0.4,2.3c-1,2.4-3.6,5.4-9.7,8c0,0,17.9,1.3,25-8.3v0c0.9-1.1,2.3-1.9,3.8-2H41c7.6,0,13.7-6.2,13.7-13.7V30
			C54.7,22.4,48.6,16.3,41,16.2z"/>
	</g>
	<g id="グループ_581" transform="translate(721.457 357.363)">
		<path id="パス_1239" class="st0" d="M47.5,16.2l-30,4.1c-0.5,0.1-0.8,0.5-0.8,1v34.6c-2.6-0.6-5.3-0.3-7.6,0.9
			c-4.5,2.2-6.9,6.4-5.5,9.4c1.5,3,6.3,3.7,10.8,1.5c3.6-1.8,5.9-4.9,5.8-7.6l0,0V30.2c0-0.5,0.4-0.9,0.8-1l22.7-3.6
			c0.4-0.1,0.7,0.2,0.8,0.5c0,0.1,0,0.1,0,0.2v26c-2.6-0.6-5.3-0.3-7.6,0.9c-4.5,2.2-6.9,6.4-5.5,9.5c1.5,3,6.3,3.7,10.8,1.5
			c4-1.9,6.3-5.5,5.8-8.4l0.1,0.1V17c0-0.4-0.3-0.7-0.7-0.7C47.6,16.2,47.5,16.2,47.5,16.2z"/>
	</g>
</g>
</svg>
