<?xml version="1.0" encoding="utf-8"?>
<!-- Generator: Adobe Illustrator 25.1.0, SVG Export Plug-In . SVG Version: 6.00 Build 0)  -->
<svg version="1.1" id="レイヤー_1" xmlns="http://www.w3.org/2000/svg" xmlns:xlink="http://www.w3.org/1999/xlink" x="0px"
	 y="0px" viewBox="0 0 100 100" style="enable-background:new 0 0 100 100;" xml:space="preserve">
<style type="text/css">
	.st0{fill:#0085F2;}
</style>
<g id="グループ_603" transform="translate(-38.348 -346.115)">
	<g id="グループ_601" transform="translate(92.316 378.607)">
		<g id="グループ_599" transform="translate(0 1.679)">
			<g id="グループ_598">
				<path id="パス_1240" class="st0" d="M20.2,17.8l-7.7,7.7H5.3c-0.8,0-1.4,0.6-1.4,1.4v8.7c0,0.8,0.6,1.4,1.4,1.4h7.2l7.7,7.7
					c0.6,0.6,1,0.4,1-0.4v-26C21.3,17.5,20.8,17.3,20.2,17.8z"/>
			</g>
		</g>
		<g id="グループ_600" transform="translate(23.374)">
			<path id="パス_1241" class="st0" d="M11.3,48.4c-1,0-1.8-0.8-1.8-1.8c0-0.5,0.2-1,0.5-1.3c6.8-6.8,6.8-17.8,0-24.6c0,0,0,0,0,0
				C9.2,20,9.2,18.8,9.9,18c0.7-0.7,1.9-0.8,2.6-0.1c0,0,0.1,0.1,0.1,0.1c8.2,8.2,8.2,21.6,0,29.8c0,0,0,0,0,0
				C12.2,48.2,11.8,48.4,11.3,48.4z"/>
			<path id="パス_1242" class="st0" d="M5.7,42.8c-1,0-1.8-0.8-1.8-1.8c0-0.5,0.2-1,0.5-1.3c3.7-3.7,3.7-9.8,0-13.5
				c-0.7-0.7-0.6-1.9,0.1-2.6c0.7-0.6,1.8-0.6,2.5,0c5.2,5.2,5.2,13.5,0,18.7c0,0,0,0,0,0C6.7,42.6,6.2,42.8,5.7,42.8z"/>
		</g>
	</g>
	<path id="パス_1243" class="st0" d="M84.8,428.6H46.6c-2.4,0-4.4-2-4.4-4.4V368c0-2.4,2-4.4,4.4-4.4h38.2c2.4,0,4.4,2,4.4,4.4
		v56.3C89.2,426.7,87.2,428.6,84.8,428.6z M46.6,368v56.3h38.2V368H46.6z"/>
	<g id="グループ_602" transform="translate(48.761 363.081)">
		<path id="パス_1244" class="st0" d="M27.8,21.9H6.1c-1.2,0-2.2-1-2.2-2.2s1-2.2,2.2-2.2l0,0h21.7c1.2,0,2.2,1,2.2,2.2
			S29,21.9,27.8,21.9z"/>
		<path id="パス_1245" class="st0" d="M27.8,35.2H6.1c-1.2,0-2.2-1-2.2-2.2s1-2.2,2.2-2.2l0,0h21.7c1.2,0,2.2,1,2.2,2.2
			S29,35.2,27.8,35.2z"/>
		<path id="パス_1246" class="st0" d="M27.8,48.6H6.1c-1.2,0-2.2-1-2.2-2.2s1-2.2,2.2-2.2l0,0h21.7c1.2,0,2.2,1,2.2,2.2
			S29,48.6,27.8,48.6z"/>
	</g>
</g>
</svg>
