<?xml version="1.0" encoding="utf-8"?>
<!-- Generator: Adobe Illustrator 25.1.0, SVG Export Plug-In . SVG Version: 6.00 Build 0)  -->
<svg version="1.1" id="レイヤー_1" xmlns="http://www.w3.org/2000/svg" xmlns:xlink="http://www.w3.org/1999/xlink" x="0px"
	 y="0px" viewBox="0 0 100 100" style="enable-background:new 0 0 100 100;" xml:space="preserve">
<style type="text/css">
	.st0{fill:#0085F2;}
</style>
<g id="アイコン" transform="translate(-169.279 -195.63)">
	<path id="パス_45" class="st0" d="M219.3,255.9c5.7,0,10.3-4.6,10.3-10.3v-27.5c0-5.7-4.6-10.3-10.3-10.3s-10.3,4.6-10.3,10.3
		v27.5C209,251.3,213.6,255.9,219.3,255.9z"/>
	<path id="パス_46" class="st0" d="M239.9,245.6v-8.8c0-1.9-1.5-3.4-3.4-3.4c-1.9,0-3.4,1.5-3.4,3.4v8.8c0.1,7.6-6,13.8-13.6,13.9
		c-7.6,0.1-13.8-6-13.9-13.6c0-0.1,0-0.2,0-0.2v-8.8c0-1.9-1.5-3.4-3.4-3.4c-1.9,0-3.4,1.5-3.4,3.4v8.8c0,10.1,7.3,18.6,17.2,20.3
		c0,0.1-0.1,0.2-0.1,0.3v10.3h-8.6c-1.9,0-3.4,1.5-3.4,3.4c0,1.9,1.5,3.4,3.4,3.4h24c1.9,0,3.4-1.5,3.4-3.4c0-1.9-1.5-3.4-3.4-3.4
		h-8.6v-10.3c0-0.1-0.1-0.2-0.1-0.3C232.6,264.3,239.9,255.7,239.9,245.6z"/>
</g>
</svg>
