<?xml version="1.0" encoding="utf-8"?>
<!-- Generator: Adobe Illustrator 25.1.0, SVG Export Plug-In . SVG Version: 6.00 Build 0)  -->
<svg version="1.1" id="レイヤー_1" xmlns="http://www.w3.org/2000/svg" xmlns:xlink="http://www.w3.org/1999/xlink" x="0px"
	 y="0px" viewBox="0 0 183.7 32" style="enable-background:new 0 0 183.7 32;" xml:space="preserve">
<style type="text/css">
	.st0{fill:#FFFFFF;}
</style>
<g id="グループ_625" transform="translate(-312.577 -343.713)">
	<g id="グループ_624">
		<g id="グループ_609" transform="translate(355.082 343.713)">
			<path id="パス_1256" class="st0" d="M14.3,25.1L14.3,25.1L24,1.2h4.5v28.9h-2.9V5h-0.1L15,30.1h-1.6L3,5H2.9v25.1H0V1.2h4.5
				L14.3,25.1z"/>
			<path id="パス_1257" class="st0" d="M43.2,27.5h15.5v2.6H40.3V1.2h17.9v2.6h-15v10h14v2.6h-14V27.5z"/>
			<path id="パス_1258" class="st0" d="M82.5,5.8c-1.4-1.9-3.6-3-6-2.9c-2.9,0-6.2,1.7-6.2,5.4c0,3.7,3.1,4.6,6.3,5.7
				c4.1,1.3,8.6,2.7,8.6,8.5s-4.9,8.3-9.4,8.3c-3.5,0.1-6.9-1.5-9.1-4.3l2.5-1.9c1.4,2.3,3.9,3.7,6.6,3.6c3,0,6.4-1.9,6.4-5.6
				c0-4-3.4-5.1-7.1-6.2c-3.8-1.2-7.8-2.9-7.8-8.1c0-5.6,5-8,9.2-8c3.9,0,6.8,1.6,8.2,3.5L82.5,5.8z"/>
			<path id="パス_1259" class="st0" d="M109.7,5.8c-1.4-1.9-3.6-3-6-2.9c-2.9,0-6.2,1.7-6.2,5.4c0,3.7,3.1,4.6,6.3,5.7
				c4.1,1.3,8.6,2.7,8.6,8.5s-4.9,8.3-9.4,8.3c-3.5,0.1-6.9-1.5-9.1-4.3l2.5-1.9c1.4,2.3,3.9,3.7,6.6,3.6c3,0,6.4-1.9,6.4-5.6
				c0-4-3.4-5.1-7.1-6.2c-3.8-1.2-7.8-2.9-7.8-8.1c0-5.6,5-8,9.2-8c3.9,0,6.8,1.6,8.2,3.5L109.7,5.8z"/>
			<path id="パス_1260" class="st0" d="M125.7,27.5h15.5v2.6h-18.4V1.2h17.9v2.6h-15v10h14v2.6h-14V27.5z"/>
		</g>
		<path id="パス_1261" class="st0" d="M325,375.3c6.7,0.2,12.3-5.1,12.5-11.8c0-0.1,0-0.2,0-0.3v-17.6h-7.3v17.7
			c0,2.1-1.4,4-3.5,4.6c-0.6,0.1-1.1,0.2-1.7,0.2c-0.6,0-1.2-0.1-1.7-0.2c-2.1-0.6-3.5-2.5-3.5-4.6v-17.7h-7.2v17.7
			c0,6.7,5.4,12.1,12.1,12.1C324.8,375.3,324.9,375.3,325,375.3"/>
	</g>
</g>
</svg>
