<?xml version="1.0" encoding="utf-8"?>
<!-- Generator: Adobe Illustrator 25.1.0, SVG Export Plug-In . SVG Version: 6.00 Build 0)  -->
<svg version="1.1" id="レイヤー_1" xmlns="http://www.w3.org/2000/svg" xmlns:xlink="http://www.w3.org/1999/xlink" x="0px"
	 y="0px" viewBox="0 0 390 390" style="enable-background:new 0 0 390 390;" xml:space="preserve">
<style type="text/css">
	.st0{fill:url(#楕円形_6_1_);}
	.st1{fill:#FFFFFF;}
	.st2{fill:url(#パス_45_1_);}
	.st3{fill:url(#パス_46_1_);}
	.st4{enable-background:new    ;}
	.st5{fill:#555555;}
</style>
<g id="グループ_622" transform="translate(-154 -193)">
	
		<linearGradient id="楕円形_6_1_" gradientUnits="userSpaceOnUse" x1="-607.541" y1="928.1179" x2="-607.541" y2="927.1179" gradientTransform="matrix(390 0 0 -390 237290 362159)">
		<stop  offset="0" style="stop-color:#0090EA"/>
		<stop  offset="1" style="stop-color:#00BAFF"/>
		<stop  offset="1" style="stop-color:#3F3F3F"/>
	</linearGradient>
	<circle id="楕円形_6" class="st0" cx="349" cy="388" r="195"/>
	<circle id="楕円形_7" class="st1" cx="349" cy="388" r="181"/>
	<g id="グループ_70" transform="translate(127.721 27.37)">
		
			<linearGradient id="パス_45_1_" gradientUnits="userSpaceOnUse" x1="-722.6308" y1="898.8145" x2="-722.6308" y2="897.8145" gradientTransform="matrix(52.364 0 0 -122.182 38061.4805 110046.5938)">
			<stop  offset="0" style="stop-color:#0090EA"/>
			<stop  offset="1" style="stop-color:#00BAFF"/>
			<stop  offset="1" style="stop-color:#3F3F3F"/>
		</linearGradient>
		<path id="パス_45" class="st2" d="M221.6,349.8c14.4,0,26.1-11.7,26.2-26.2v-69.8c0-14.5-11.7-26.2-26.2-26.2
			c-14.5,0-26.2,11.7-26.2,26.2v69.8C195.5,338.1,207.2,349.8,221.6,349.8z"/>
		
			<linearGradient id="パス_46_1_" gradientUnits="userSpaceOnUse" x1="-729.9258" y1="898.9233" x2="-729.9258" y2="897.9233" gradientTransform="matrix(104.727 0 0 -127.0915 76664.5938 114538.0703)">
			<stop  offset="0" style="stop-color:#0090EA"/>
			<stop  offset="1" style="stop-color:#00BAFF"/>
			<stop  offset="1" style="stop-color:#3F3F3F"/>
		</linearGradient>
		<path id="パス_46" class="st3" d="M274,323.6v-22.4c0-4.8-3.9-8.7-8.7-8.7c-4.8,0-8.7,3.9-8.7,8.7v22.4
			c0,19.3-15.6,34.9-34.9,34.9c-19.3,0-34.9-15.6-34.9-34.9c0,0,0,0,0,0v-22.4c0-4.8-3.9-8.7-8.7-8.7c-4.8,0-8.7,3.9-8.7,8.7v22.4
			c0,25.6,18.6,47.4,43.8,51.6c0,0.3-0.2,0.5-0.2,0.8v26.2h-21.8c-4.8,0-8.7,3.9-8.7,8.7c0,4.8,3.9,8.7,8.7,8.7l0,0h61
			c4.8,0,8.7-3.9,8.7-8.7c0-4.8-3.9-8.7-8.7-8.7h-21.8V376c0-0.3-0.1-0.5-0.2-0.8C255.5,371,274,349.2,274,323.6z"/>
	</g>
	<g class="st4">
		<path class="st5" d="M294.4,488.8c-0.7,0-1.1,0-1.8,0.1v-1.6c-0.6,0.5-0.8,0.7-1.4,1.2c-0.4-1.2-0.7-1.9-1.4-2.8
			c2.5-1.7,4.2-3.9,5.2-6.5h3.3c1,2.1,2.1,3.4,4.4,5c-0.8,0.9-1.3,1.6-1.8,2.7l-0.2-0.2v2.2c-0.7-0.1-0.9-0.1-1.8-0.1H298v2h1.2
			c0.9,0,1.6,0,2.1-0.1v-2.5c0.8,0.1,1.7,0.2,2.9,0.2h7.6c0.1-0.9,0.1-1.2,0.1-1.7H306c-1.4,0-2,0-2.7,0.1V484
			c0.8,0.1,1.3,0.1,2.7,0.1h6.1c0.1-0.7,0.1-0.8,0.1-1.6h-6.7c-1.3,0-2.1,0-2.9,0.1v-2.9c0.8,0.1,1.6,0.1,3,0.1h7c1.2,0,2,0,2.8-0.1
			c-0.1,0.7-0.1,0.7-0.2,2.9c-0.1,1.6-0.2,4.2-0.4,5.8h0.2c1.3,0,2.1-0.1,2.9-0.2v3c-0.8-0.1-1.7-0.1-2.9-0.1h-4
			c0.3,1.6,0.6,2.6,1.4,4.4c1.3-1.3,2.1-2.2,2.9-3.6l2.5,1.7c-1.5,1.8-2.8,3.2-4,4.3c1.3,1.9,2.5,3,4.6,4.3c-0.8,1-1.2,1.7-1.8,2.9
			c-1.9-1.6-2.7-2.5-3.7-3.9c-1-1.4-1.5-2.4-2.3-4.7c0.1,0.6,0.1,1.7,0.2,3.3v3.8c0,2-0.9,2.7-3.3,2.7c-0.7,0-1.5,0-2.6-0.1
			c-0.1-1.4-0.3-2-0.7-3c1,0.2,1.8,0.3,2.3,0.3c1.1,0,1.3-0.1,1.3-0.8V500c-1,0.9-1.2,1-2.1,1.7c-0.5,0.4-0.5,0.4-2.5,1.8
			c-0.5,0.3-0.5,0.3-1,0.7l-1-2.1v1.2c-3.1,1-5.3,1.6-8,2.1c-1.4,0.3-1.4,0.3-2.4,0.5l-0.5-3.3c1.2,0,2.3-0.2,4.7-0.6v-8.4h-1.6
			c-1.3,0-2.2,0.1-2.9,0.1v-3.1c0.8,0.1,1.7,0.1,3,0.1h1.5v-2H294.4z M292.1,501.2c-0.2-2.1-0.6-3.6-1.3-5.8l2.3-0.7
			c0.6,1.9,0.9,3.3,1.3,5.8L292.1,501.2z M294.5,486.1h4.5c0.5,0,0.7,0,1.1,0c-1.3-1.3-2.2-2.4-3.2-4.2c-0.9,1.7-1.7,2.9-3,4.3
			H294.5z M304.2,491c-1.2,0-1.9,0-2.7,0.1v2.6c-0.7-0.1-1.3-0.1-2.3-0.1H298v7.8c1.1-0.3,1.7-0.4,3.3-0.9v0.6
			c2.4-1.2,4.4-2.5,6.7-4.3V491H304.2z M298.4,499.4c0.6-1.8,0.9-3,1.2-4.9l2.3,0.8c-0.4,1.9-0.8,3.1-1.4,4.8L298.4,499.4z
			 M304.5,491.9c1.4,2,1.8,2.6,2.6,4.5l-2.3,1.5c-0.8-1.9-1.5-3.2-2.6-4.8L304.5,491.9z"/>
		<path class="st5" d="M332,480.5c0-0.7-0.1-1.2-0.2-1.9h3.7c-0.1,0.6-0.2,1.2-0.2,1.9v0.7h6.8c1.6,0,2.8-0.1,3.7-0.2v3.2
			c-1-0.1-1.8-0.1-3.2-0.1h-1.4c-0.8,1.7-1.2,2.8-1.7,3.6h4.5c1.8,0,2.6,0,3.4-0.2v3.2c-0.9-0.1-1.7-0.2-3.4-0.2h-20.2
			c-1.7,0-2.5,0-3.4,0.2v-3.2c0.9,0.1,1.8,0.2,3.6,0.2h3.8c-0.3-1.1-1-2.6-1.6-3.6h-1.3c-1.4,0-2.2,0-3.1,0.1V481
			c0.9,0.1,2,0.2,3.5,0.2h6.6V480.5z M341,492.4c1.2,0,1.9,0,2.9-0.1c-0.1,1-0.1,1.7-0.1,2.7v8.6c0,1.2,0.1,2.1,0.2,2.9h-3.4v-1.3
			h-13v1.3H324c0.1-0.9,0.2-1.8,0.2-2.9v-8.6c0-0.9,0-1.7-0.1-2.7c1,0.1,1.6,0.1,2.9,0.1H341z M327.5,497.3h13v-2.1h-13V497.3z
			 M327.5,502.3h13v-2.4h-13V502.3z M336.2,487.7c0.7-1.2,1.3-2.4,1.6-3.6h-8.1c0.6,1.2,1.1,2.4,1.5,3.6H336.2z"/>
		<path class="st5" d="M354.6,502.7c0,1.8,0.1,2.8,0.2,3.7h-3.5c0.1-0.9,0.2-1.9,0.2-3.7v-19.8c0-1.6,0-2.4-0.1-3.4
			c0.8,0.1,1.6,0.1,3.1,0.1h5.5c1.6,0,2.2,0,3.1-0.1c-0.1,0.9-0.1,1.7-0.1,2.8v4.6c0,1.3,0,1.9,0.1,2.7c-0.8-0.1-1.7-0.1-2.8-0.1
			h-5.6V502.7z M354.6,483.4h5.3v-1.6h-5.3V483.4z M354.6,487.2h5.3v-1.6h-5.3V487.2z M359.6,496.1c0.1-1,0.1-1.4,0.1-2.8
			c-1.4,0-2.2,0-3,0.1v-2.7c0.8,0.1,1.6,0.2,3,0.2h8.7c1.5,0,2.3,0,3.1-0.2v2.7c-0.8-0.1-1.6-0.1-3.1-0.1v2.8h0.5
			c1.5,0,2.2,0,3.1-0.1v2.8c-0.9-0.1-1.6-0.2-3.1-0.2h-0.5v4.4c0,1.4,0,1.9,0.2,2.5h-3.2c0.1-0.7,0.2-1.3,0.2-2.6v-4.4h-3.4
			c-0.3,3.2-1.3,5.2-3.6,7.4c-0.8-0.8-1.4-1.3-2.4-2.1c2-1.6,2.9-2.9,3.2-5.3c-1.6,0-2.4,0-3.2,0.2V496c0.8,0.1,1.6,0.1,3.1,0.1
			H359.6z M362.4,493.3c0,1.3,0,1.3-0.1,2.8h3.2v-2.8H362.4z M376.7,502.7c0,2.7-0.9,3.4-4.3,3.4c-0.5,0-1,0-1.9-0.1
			c-0.2-1.4-0.3-2-0.8-3.2c1.1,0.1,2,0.2,2.8,0.2c1,0,1.1-0.1,1.1-0.8v-12.8h-5.9c-1,0-2,0-2.7,0.1c0.1-0.9,0.1-1.3,0.1-2.7v-4.6
			c0-1.1,0-1.9-0.1-2.8c0.8,0.1,1.5,0.1,3.1,0.1h5.7c1.5,0,2.2,0,3.1-0.1c-0.1,1.1-0.1,1.8-0.1,3.3V502.7z M368,483.4h5.6v-1.6H368
			V483.4z M368,487.2h5.6v-1.6H368V487.2z"/>
		<path class="st5" d="M391.1,489.9c-0.5,3.1-1,5.2-2,7.6c1.2,1,1.7,1.5,3.1,2.9l-2,2.8c-1.2-1.4-1.7-1.9-2.6-2.8
			c-1.5,2.2-2.8,3.7-5.3,5.5c-0.7-1-1.3-1.8-2.2-2.6c2.4-1.7,3.7-3,5.1-5c-1.5-1.2-2.2-1.7-4.3-2.9c1.1-2.7,1.9-5,2.5-8.2h-0.7
			c-0.8,0-1.5,0.1-2.1,0.2v-3.2c0.8,0.1,1.5,0.2,2.4,0.2h0.9c0.4-2.5,0.6-4.2,0.6-5.4c0-0.1,0-0.2,0-0.4l3.4,0.3
			c-0.1,0.4-0.2,0.9-0.3,1.9c-0.2,1.1-0.2,1.4-0.6,3.6h2c1.2,0,2,0,2.7-0.1c-0.1,0.5-0.1,0.5-0.1,1.4c-0.1,1.2-0.1,1.7-0.3,2.9
			c0.4,0,0.5,0,0.9,0c0.4,0,0.4,0,1.1,0c0.2-0.5,0.2-0.5,0.5-1.3c1.3-3.1,2.4-6.8,2.5-8.6l3.7,0.7c-0.2,0.4-0.2,0.5-0.6,1.7
			c-1,3.1-1.5,4.4-2.7,7.3c3.6-0.3,3.6-0.3,6.2-0.6c-0.8-1.3-1.3-2.2-2.7-4.1l2.9-1.3c2.6,3.7,3.3,5,5.1,8.7l-2.9,1.8
			c-0.5-1.2-0.6-1.4-1-2.4c-4.2,0.5-6.2,0.8-10.3,1.1c-1.5,0.2-2,0.2-2.6,0.4L391.1,489.9z M386.4,487.3c-0.5,2.5-1.1,4.7-1.9,7
			c1.2,0.8,1.6,1,2.1,1.4c1.1-2.5,1.6-4.6,1.9-8.4H386.4z M395.8,506.5h-3.3c0.1-0.7,0.1-1.4,0.1-2.7V496c0-1.1-0.1-2.1-0.1-2.8
			c0.7,0.1,1.5,0.1,2.5,0.1h8.4c1.4,0,2.2,0,2.8-0.1c-0.1,0.8-0.1,1.6-0.1,3v7.3c0,1.3,0,2.2,0.2,3H403V505h-7.2V506.5z
			 M395.7,502.1h7.3v-5.8h-7.3V502.1z"/>
	</g>
</g>
</svg>
