<?xml version="1.0" encoding="utf-8"?>
<!-- Generator: Adobe Illustrator 25.1.0, SVG Export Plug-In . SVG Version: 6.00 Build 0)  -->
<svg version="1.1" id="レイヤー_1" xmlns="http://www.w3.org/2000/svg" xmlns:xlink="http://www.w3.org/1999/xlink" x="0px"
	 y="0px" viewBox="0 0 390 390" style="enable-background:new 0 0 390 390;" xml:space="preserve">
<style type="text/css">
	.st0{fill:url(#楕円形_6_1_);}
	.st1{fill:#FFFFFF;}
	.st2{enable-background:new    ;}
	.st3{fill:#555555;}
	.st4{fill:url(#長方形_270_1_);}
</style>
<g id="グループ_626" transform="translate(-90 -231)">
	<g id="グループ_625">
		
			<linearGradient id="楕円形_6_1_" gradientUnits="userSpaceOnUse" x1="-671.541" y1="966.1179" x2="-671.541" y2="965.1179" gradientTransform="matrix(390 0 0 -390 262186 377017)">
			<stop  offset="0" style="stop-color:#E04242"/>
			<stop  offset="1" style="stop-color:#FF7157"/>
			<stop  offset="1" style="stop-color:#3F3F3F"/>
		</linearGradient>
		<circle id="楕円形_6" class="st0" cx="285" cy="426" r="195"/>
		<circle id="楕円形_7" class="st1" cx="285" cy="426" r="181"/>
		<g class="st2">
			<path class="st3" d="M230.4,526.8c-0.7,0-1.1,0-1.8,0.1v-1.6c-0.6,0.5-0.8,0.7-1.4,1.2c-0.4-1.2-0.7-1.9-1.4-2.8
				c2.5-1.7,4.2-3.9,5.2-6.5h3.3c1,2.1,2.1,3.4,4.4,5c-0.8,0.9-1.3,1.6-1.8,2.7l-0.2-0.2v2.2c-0.7-0.1-0.9-0.1-1.8-0.1H234v2h1.2
				c0.9,0,1.6,0,2.1-0.1v-2.5c0.8,0.1,1.7,0.2,2.9,0.2h7.6c0.1-0.9,0.1-1.2,0.1-1.7H242c-1.4,0-2,0-2.7,0.1V522
				c0.8,0.1,1.3,0.1,2.7,0.1h6.1c0.1-0.7,0.1-0.8,0.1-1.6h-6.7c-1.3,0-2.1,0-2.9,0.1v-2.9c0.8,0.1,1.6,0.1,3,0.1h7
				c1.2,0,2,0,2.8-0.1c-0.1,0.7-0.1,0.7-0.2,2.9c-0.1,1.6-0.2,4.2-0.4,5.8h0.2c1.3,0,2.1-0.1,2.9-0.2v3c-0.8-0.1-1.7-0.1-2.9-0.1h-4
				c0.3,1.6,0.6,2.6,1.4,4.4c1.3-1.3,2.1-2.2,2.9-3.6l2.5,1.7c-1.5,1.8-2.8,3.2-4,4.3c1.3,1.9,2.5,3,4.6,4.3c-0.8,1-1.2,1.7-1.8,2.9
				c-1.9-1.6-2.7-2.5-3.7-3.9c-1-1.4-1.5-2.4-2.3-4.7c0.1,0.6,0.1,1.7,0.2,3.3v3.8c0,2-0.9,2.7-3.3,2.7c-0.7,0-1.5,0-2.6-0.1
				c-0.1-1.4-0.3-2-0.7-3c1,0.2,1.8,0.3,2.3,0.3c1.1,0,1.3-0.1,1.3-0.8V538c-1,0.9-1.2,1-2.1,1.7c-0.5,0.4-0.5,0.4-2.5,1.8
				c-0.5,0.3-0.5,0.3-1,0.7l-1-2.1v1.2c-3.1,1-5.3,1.6-8,2.1c-1.4,0.3-1.4,0.3-2.4,0.5l-0.5-3.3c1.2,0,2.3-0.2,4.7-0.6v-8.4h-1.6
				c-1.3,0-2.2,0.1-2.9,0.1v-3.1c0.8,0.1,1.7,0.1,3,0.1h1.5v-2H230.4z M228.1,539.2c-0.2-2.1-0.6-3.6-1.3-5.8l2.3-0.7
				c0.6,1.9,0.9,3.3,1.3,5.8L228.1,539.2z M230.5,524.1h4.5c0.5,0,0.7,0,1.1,0c-1.3-1.3-2.2-2.4-3.2-4.2c-0.9,1.7-1.7,2.9-3,4.3
				H230.5z M240.2,529c-1.2,0-1.9,0-2.7,0.1v2.6c-0.7-0.1-1.3-0.1-2.3-0.1H234v7.8c1.1-0.3,1.7-0.4,3.3-0.9v0.6
				c2.4-1.2,4.4-2.5,6.7-4.3V529H240.2z M234.4,537.4c0.6-1.8,0.9-3,1.2-4.9l2.3,0.8c-0.4,1.9-0.8,3.1-1.4,4.8L234.4,537.4z
				 M240.5,529.9c1.4,2,1.8,2.6,2.6,4.5l-2.3,1.5c-0.8-1.9-1.5-3.2-2.6-4.8L240.5,529.9z"/>
			<path class="st3" d="M268,518.5c0-0.7-0.1-1.2-0.2-1.9h3.7c-0.1,0.6-0.2,1.2-0.2,1.9v0.7h6.8c1.6,0,2.8-0.1,3.7-0.2v3.2
				c-1-0.1-1.8-0.1-3.2-0.1h-1.4c-0.8,1.7-1.2,2.8-1.7,3.6h4.5c1.8,0,2.6,0,3.4-0.2v3.2c-0.9-0.1-1.7-0.2-3.4-0.2h-20.2
				c-1.7,0-2.5,0-3.4,0.2v-3.2c0.9,0.1,1.8,0.2,3.6,0.2h3.8c-0.3-1.1-1-2.6-1.6-3.6h-1.3c-1.4,0-2.2,0-3.1,0.1V519
				c0.9,0.1,2,0.2,3.5,0.2h6.6V518.5z M277,530.4c1.2,0,1.9,0,2.9-0.1c-0.1,1-0.1,1.7-0.1,2.7v8.6c0,1.2,0.1,2.1,0.2,2.9h-3.4v-1.3
				h-13v1.3H260c0.1-0.9,0.2-1.8,0.2-2.9v-8.6c0-0.9,0-1.7-0.1-2.7c1,0.1,1.6,0.1,2.9,0.1H277z M263.5,535.3h13v-2.1h-13V535.3z
				 M263.5,540.3h13v-2.4h-13V540.3z M272.2,525.7c0.7-1.2,1.3-2.4,1.6-3.6h-8.1c0.6,1.2,1.1,2.4,1.5,3.6H272.2z"/>
			<path class="st3" d="M289.1,532.3c0-1,0-1.8,0.1-3.4c-0.9,1.6-1.4,2.3-2.3,3.4c-0.4-1.4-0.8-2.3-1.4-3.6c1.5-1.7,2.7-3.6,3.7-5.7
				c1-2.1,1.8-4.8,2-6.4l3.4,0.8c-1.2,3.9-1.7,5.2-2.5,6.8v16.9c0,1.3,0,2.3,0.2,3.5h-3.4c0.1-1.2,0.2-2.1,0.2-3.5V532.3z
				 M298.6,537.4c-1.3,0-2.1,0-2.9,0.2v-1.8h-2.2c0.1-0.6,0.1-1.2,0.1-2v-1.5c0-0.9,0-1.5-0.1-2.1c0.8,0.1,1.5,0.1,2.7,0.1h14.3
				c1.2,0,2.2,0,3.1-0.2c-0.1,0.7-0.1,1.2-0.1,2.1v1.5c0,0.8,0,1.4,0.1,2h-2v1.8c-0.8-0.1-1.7-0.2-2.9-0.2h-3.1v4
				c0,2.3-0.8,2.8-4.5,2.8c-0.8,0-1.4,0-2.5-0.1c-0.1-1.2-0.4-2.1-0.8-3.1c1.1,0.2,2.4,0.3,3.4,0.3c1,0,1.2-0.1,1.2-0.7v-3.2H298.6z
				 M302,518.6c0-0.7-0.1-1.3-0.2-1.8h3.5c-0.1,0.5-0.2,1-0.2,1.8v0.4h4.9c1.4,0,2.4-0.1,3.2-0.2v3.1c-0.9-0.1-1.7-0.1-2.9-0.1
				h-13.2c-1.2,0-2,0-2.9,0.1v-3.1c0.9,0.1,1.6,0.2,3.1,0.2h4.5V518.6z M295.9,524.9c0-0.8,0-1.3-0.1-2c0.8,0.1,1.7,0.1,2.9,0.1h9.7
				c1.1,0,2.1,0,2.9-0.1c-0.1,0.8-0.1,1.2-0.1,2v2.4c0,0.8,0,1.3,0.1,1.9c-0.8-0.1-1.5-0.1-2.9-0.1h-9.6c-1.3,0-2.1,0-2.9,0.1
				c0.1-0.8,0.1-1.2,0.1-2V524.9z M310.5,533.1h-13.7v1.6c0.6,0,1,0,1.8,0h10.3c0.7,0,1.1,0,1.6,0V533.1z M299,526.7h9v-1.4h-9
				V526.7z"/>
			<path class="st3" d="M339.8,540c1.5,0,2.6-0.1,3.8-0.2v3.7c-1.3-0.2-2.3-0.2-3.8-0.2h-19.4c-1.3,0-2.5,0.1-3.8,0.2v-3.7
				c1.2,0.1,2.2,0.2,3.8,0.2h0.9v-13.9c0-1.4-0.1-2.5-0.2-3.6h3.8c-0.1,1.1-0.2,2.2-0.2,3.6V540h5v-19.3c0-1.7,0-2.4-0.2-3.5h3.8
				c-0.1,1-0.2,2-0.2,3.5v5.8h5.4c1.3,0,2.4-0.1,3.5-0.2v3.6c-1.1-0.1-2.3-0.2-3.5-0.2h-5.4V540H339.8z"/>
		</g>
	</g>
	<g id="グループ_624" transform="translate(-64 38)">
		
			<linearGradient id="長方形_270_1_" gradientUnits="userSpaceOnUse" x1="-601.7041" y1="925.4898" x2="-601.7041" y2="924.4898" gradientTransform="matrix(98 0 0 -98 59316 91021)">
			<stop  offset="0" style="stop-color:#E04242"/>
			<stop  offset="1" style="stop-color:#E26548"/>
			<stop  offset="1" style="stop-color:#3F3F3F"/>
		</linearGradient>
		<path id="長方形_270" class="st4" d="M304,323h90c2.2,0,4,1.8,4,4v90c0,2.2-1.8,4-4,4h-90c-2.2,0-4-1.8-4-4v-90
			C300,324.8,301.8,323,304,323z"/>
	</g>
</g>
</svg>
